# xmcd
#
# Track frame offsets:
#	150
#	22149
#	40425
#	59656
#	78002
#	99054
#	119941
#	140349
#	161036
#	180459
#	200795
#	218111
#	240289
#	257462
#	278908
#	298355
#	317720
#	334772
#
# Disc length: 4718 seconds
#
# Revision: 0
# Processed by: cddbd v1.5.2PL0 Copyright (c) Steve Scherf et al.
# Submitted via: EasyCDDAExtractor 12.0.7.1
#
DISCID=12126c12
DTITLE=Жека - Аллея шансона
DYEAR=2011
DGENRE=Chanson
TTITLE0=Кукушка
TTITLE1=Когда не нужно лишних слов
TTITLE2=Играет Дассен
TTITLE3=Дорога в никуда
TTITLE4=Золотко
TTITLE5=Я, как осенний лист
TTITLE6=Звон серебряный
TTITLE7=Баллада о первом встречном
TTITLE8=Глаза бедовые
TTITLE9=Рюмка водки на столе
TTITLE10=Сказочный лес
TTITLE11=Прости
TTITLE12=Лена
TTITLE13=Остывший чай (Про нас)
TTITLE14=Уйду к цыганам
TTITLE15=Одинаковые сны
TTITLE16=Гололед
TTITLE17=Плавно падает снег
EXTD=
EXTT0=
EXTT1=
EXTT2=
EXTT3=
EXTT4=
EXTT5=
EXTT6=
EXTT7=
EXTT8=
EXTT9=
EXTT10=
EXTT11=
EXTT12=
EXTT13=
EXTT14=
EXTT15=
EXTT16=
EXTT17=
PLAYORDER=
